<?xml version="1.0" encoding="UTF-8"?>
<svg width="14px" height="16px" viewBox="0 0 14 16" version="1.1" xmlns="http://www.w3.org/2000/svg" xmlns:xlink="http://www.w3.org/1999/xlink">
    <title>Shape</title>
    <g id="Page-1" stroke="none" stroke-width="1" fill="none" fill-rule="evenodd">
        <path d="M13.5238,10.1667 L12.119,9.33333 L13.4524,8.57143 C13.7619,8.45238 13.9048,8.11905 13.9524,7.80952 C13.9524,7.5 13.7619,7.16667 13.5,7.04762 L11.9048,6.09524 L13.5,5.21429 C13.8095,5.09524 13.9524,4.7619 14,4.45238 C14,4.14286 13.8095,3.80952 13.5476,3.69048 L7.61905,0.142857 C7.35714,-0.047619 6.97619,-0.047619 6.7381,0.142857 L0.452381,3.64286 C0.190476,3.83333 0,4.09524 0,4.40476 C0,4.71429 0.190476,5.04762 0.452381,5.16667 L2.09524,6.04762 L0.452381,7 C0.190476,7.11905 0,7.45238 0,7.76191 C0,8.07143 0.190476,8.40476 0.452381,8.52381 L1.90476,9.35714 L0.452381,10.1905 C0.190476,10.3095 0,10.6429 0,10.9524 C0,11.2619 0.190476,11.5952 0.452381,11.7143 L6.66667,15.0714 C6.78571,15.1429 6.97619,15.1905 7.11905,15.1905 C7.2381,15.1905 7.42857,15.119 7.57143,15.0714 L13.4762,11.7143 C13.7857,11.5952 13.9286,11.2619 13.9762,10.9524 C13.9762,10.619 13.7857,10.3095 13.5238,10.1667 Z M1.71429,4.40476 L7.19048,1.28571 L12.3333,4.40476 L7.11905,7.30952 L1.71429,4.40476 Z M1.71429,7.76191 L3.42857,6.80952 L6.66667,8.59524 C6.78571,8.71429 6.97619,8.71429 7.11905,8.71429 C7.11905,8.71429 7.11905,8.71429 7.19048,8.71429 C7.38095,8.71429 7.5,8.64286 7.64286,8.52381 L10.6905,6.80952 L12.3333,7.76191 L7.19048,10.6905 L1.71429,7.76191 Z M7.11905,13.8571 L1.71429,10.9286 L3.2381,10.0476 L6.66667,11.9524 C6.78571,12.0238 6.97619,12.0714 7.11905,12.0714 C7.2381,12.0714 7.42857,12 7.57143,11.9524 L10.881,10.0476 L12.3333,10.9286 L7.11905,13.8571 Z" id="Shape" fill="#2A6683" fill-rule="nonzero"></path>
    </g>
</svg>